Coordinates
version=1
nRows=24
nColumns=24
inDegrees=yes

Units are S.I. units (second, meters, Newtons, ...)
Angles are in degrees.

endheader
time	pelvis_tilt	pelvis_list	pelvis_rotation	pelvis_tx	pelvis_ty	pelvis_tz	hip_flexion_r	hip_adduction_r	hip_rotation_r	knee_angle_r	ankle_angle_r	subtalar_angle_r	mtp_angle_r	hip_flexion_l	hip_adduction_l	hip_rotation_l	knee_angle_l	ankle_angle_l	subtalar_angle_l	mtp_angle_l	lumbar_extension	lumbar_bending	lumbar_rotation
      5.03000000	     -3.01521386	      0.11112313	      1.85254600	     -1.79592470	     -0.02619611	     -0.31651878	     26.51216276	      0.87876925	     -9.72938930	     -8.99286081	     -3.76797065	      1.43838454	     21.05466090	    -14.81142559	      1.23652206	     -4.99489380	    -16.23280947	      5.58476407	      6.19876137	     24.75897749	     -1.76689239	      0.60725784	     -6.69769115
      5.03500000	     -3.01489548	     -0.06256734	      1.85712710	     -1.78788071	     -0.02685646	     -0.31588622	     26.53201473	      1.21531405	     -8.92529586	     -9.97545884	     -3.80365189	      0.05226916	     17.91073818	    -14.78619795	      0.81930167	     -5.43539233	    -17.05891054	      4.52584191	      6.81410922	     27.11487034	     -1.61676828	      0.84292950	     -6.64110504
      5.04000000	     -3.13129007	     -0.20370696	      1.81343558	     -1.77983313	     -0.02757668	     -0.31526575	     26.63427289	      1.52548503	     -8.20443361	    -10.72727987	     -4.61151643	     -1.52535015	     17.20111757	    -14.55579698	      0.46304422	     -5.86360037	    -18.09422127	      3.69541615	      7.45414939	     27.56053061	     -1.34872144	      1.05226400	     -6.51570787
      5.04500000	     -3.20072000	     -0.40284633	      1.76301271	     -1.77181527	     -0.02812211	     -0.31449001	     26.64047643	      1.91486225	     -7.50149212	    -11.36411343	     -5.49788500	     -3.07846653	     16.14151443	    -14.31795551	      0.00156597	     -6.43741836	    -19.18582846	      2.67779189	      8.18417767	     28.56730121	     -1.13673373	      1.30134009	     -6.38390537
      5.05000000	     -3.22239927	     -0.75114413	      1.72002471	     -1.76374355	     -0.02841565	     -0.31370620	     26.56247911	      2.44778129	     -7.01989785	    -11.95610683	     -6.09732577	     -4.24772639	     13.69895088	    -14.11593865	     -0.64332145	     -7.04184879	    -20.17794517	      1.09402793	      8.63743047	     31.77854605	     -0.96919176	      1.71627540	     -6.20587707
      5.05500000	     -3.35998823	     -1.03087378	      1.64115784	     -1.75576533	     -0.02871091	     -0.31282339	     26.58240254	      2.91708567	     -6.46780897	    -12.38148312	     -7.19301815	     -5.62015042	     13.15263235	    -13.66324675	     -1.23153832	     -7.73411602	    -21.48433750	     -0.10305034	      9.39421613	     32.28322460	     -0.69737970	      2.04374468	     -6.09619553
      5.06000000	     -3.37740287	     -1.45158413	      1.46847513	     -1.74776824	     -0.02872776	     -0.31179021	     26.43871387	      3.58513543	     -5.83504621	    -12.74835043	     -8.15257172	     -6.88767947	     11.81927208	    -13.36261550	     -1.98302052	     -8.58768986	    -22.61389523	     -1.98597756	      9.80111565	     35.33175734	     -0.55921267	      2.52697451	     -5.83101660
      5.06500000	     -3.48385576	     -1.81316385	      1.24753175	     -1.73995366	     -0.02872251	     -0.31066023	     26.40455856	      4.21111690	     -5.06847040	    -13.09714365	     -9.26480565	     -8.24622807	     11.25667585	    -12.85674606	     -2.67691763	     -9.40403947	    -23.99637728	     -3.61893174	     10.33551908	     36.25215662	     -0.36626312	      2.94399690	     -5.53467279
      5.07000000	     -3.53286340	     -2.27748174	      1.11706075	     -1.73201335	     -0.02851788	     -0.30951594	     26.28359629	      4.90879815	     -4.50333221	    -13.45752086	    -10.03812486	     -9.42159948	     10.17762127	    -12.40135858	     -3.54744295	    -10.18883582	    -25.25660066	     -5.82767788	     10.70915044	     39.16528880	     -0.21103938	      3.44727748	     -5.31527997
      5.07500000	     -3.62137831	     -2.66647639	      0.86272609	     -1.72421602	     -0.02829530	     -0.30826203	     26.23315458	      5.59111976	     -3.62824370	    -13.88788771	    -10.77657782	    -10.66257544	      9.32688991	    -11.85132213	     -4.31025324	    -10.97730727	    -26.64500972	     -7.98261681	     10.99996083	     40.46414721	     -0.05202073	      3.88145552	     -4.96855396
      5.08000000	     -3.71125788	     -3.13177520	      0.77366623	     -1.71646639	     -0.02798999	     -0.30711734	     26.20746724	      6.28142205	     -3.04867469	    -14.41733136	    -11.07056659	    -11.69047969	      7.55872103	    -11.22255993	     -5.21939577	    -11.54978668	    -28.03451268	    -10.45661753	     11.20095486	     42.89899043	      0.10901331	      4.37597334	     -4.81508947
      5.08500000	     -3.84859218	     -3.54067370	      0.52441304	     -1.70869766	     -0.02778664	     -0.30582719	     26.25779455	      6.99315041	     -2.19709687	    -15.04763993	    -11.20424649	    -12.71089790	      5.94152770	    -10.53897814	     -6.04289367	    -12.19841661	    -29.48639876	    -12.88566292	     11.38326075	     44.12266081	      0.30678100	      4.82362987	     -4.48312918
      5.09000000	     -3.92585757	     -3.90391893	      0.46801535	     -1.70114765	     -0.02744452	     -0.30474677	     26.28105568	      7.58766424	     -1.53689168	    -15.80548152	    -10.75825286	    -13.54905423	      2.82227207	     -9.83207879	     -6.82328874	    -12.43929404	    -30.90279086	    -15.64765872	     11.24266164	     45.89753658	      0.41865135	      5.20409088	     -4.35556621
      5.09500000	     -4.06210198	     -4.24996283	      0.37091107	     -1.69357969	     -0.02724529	     -0.30365282	     26.38373817	      8.18667931	     -0.84082068	    -16.63316779	    -10.09550992	    -14.31602108	     -0.49736543	     -9.02042557	     -7.58152498	    -12.64890315	    -32.41340226	    -18.26197084	     11.15153197	     46.73692621	      0.59357145	      5.57173337	     -4.18356242
      5.10000000	     -4.20809871	     -4.55353713	      0.32389357	     -1.68608987	     -0.02711035	     -0.30268492	     26.50543823	      8.71609326	     -0.21710402	    -17.49327837	     -9.26613788	    -15.00757727	     -3.81910507	     -8.13715108	     -8.28239426	    -12.69555103	    -33.96903481	    -20.85070657	     10.95370863	     47.21931564	      0.77183063	      5.89583594	     -4.06300471
      5.10500000	     -4.48122111	     -4.83305575	      0.28382177	     -1.67858335	     -0.02720092	     -0.30183195	     26.74619201	      9.19612860	      0.32998112	    -18.28853417	     -8.84762815	    -15.87086679	     -5.46523268	     -7.05300020	     -8.94450470	    -12.65216794	    -35.62852398	    -23.24103758	     10.70610813	     47.07221743	      1.09458006	      6.20559918	     -3.93536239
      5.11000000	     -4.48472107	     -5.07004112	      0.36622611	     -1.67130590	     -0.02698219	     -0.30113888	     26.69994953	      9.60078139	      0.79588816	    -19.17413437	     -7.32547647	    -16.16631821	    -10.16385501	     -6.20897447	     -9.53933513	    -12.43897228	    -37.22962704	    -25.71402476	     10.21427809	     46.87449541	      1.10441080	      6.45524790	     -3.93858650
      5.11500000	     -4.48186194	     -5.31929048	      0.47491058	     -1.66397839	     -0.02685347	     -0.30071021	     26.56346630	      9.94505637	      1.02534664	    -19.79686095	     -7.01152972	    -16.84367560	    -10.31483826	     -5.33148488	    -10.12690725	    -12.22422735	    -38.87764180	    -27.99875882	      9.54909605	     46.39832772	      1.12285231	      6.74335472	     -3.93697680
      5.12000000	     -4.89708382	     -5.48143446	      0.48995496	     -1.65680270	     -0.02721020	     -0.30008236	     26.92588021	     10.23585131	      1.36094497	    -20.55707933	     -6.09602490	    -17.11954534	    -12.14634308	     -3.89919363	    -10.60811536	    -11.97308085	    -40.72584234	    -29.85935419	      8.91311422	     45.01723505	      1.56458851	      6.92689038	     -3.84918461
      5.12500000	     -4.91330461	     -5.68301804	      0.62887991	     -1.64974500	     -0.02706933	     -0.29971282	     26.76394757	     10.50188117	      1.49516859	    -21.13697656	     -5.02346253	    -17.20642958	    -14.10820307	     -2.87554361	    -11.10648588	    -11.66185017	    -42.49815880	    -31.58437644	      8.07365636	     43.21036425	      1.57604361	      7.15164830	     -3.86461544
      5.13000000	     -4.96973876	     -5.92316643	      0.71926848	     -1.64271554	     -0.02697002	     -0.29930328	     26.58025271	     10.79950465	      1.54697244	    -21.56633832	     -4.25319375	    -17.26926548	    -14.81749736	     -1.80573181	    -11.64357356	    -11.42722275	    -44.23929316	    -33.13159513	      7.09550449	     41.86404065	      1.62600724	      7.41802342	     -3.80471306
      5.13500000	     -5.01032307	     -6.17318908	      0.81472524	     -1.63578511	     -0.02679335	     -0.29896564	     26.32667602	     11.06747888	      1.44424506	    -21.87927797	     -3.49158162	    -17.11827527	    -15.02772546	     -0.71771957	    -12.17153826	    -11.18312436	    -45.99559877	    -34.30165290	      6.03514018	     40.11376793	      1.65001437	      7.69676802	     -3.73249051
      5.14000000	     -5.05224413	     -6.42920545	      0.89352611	     -1.62893255	     -0.02652392	     -0.29862809	     26.01511887	     11.31921353	      1.23446719	    -22.06517140	     -2.78389753	    -16.81575847	    -14.81707621	      0.38504100	    -12.69105556	    -10.95624123	    -47.73360812	    -35.06114317	      4.92727979	     38.13828807	      1.66749643	      7.98141942	     -3.62647508
      5.14500000	     -5.07188357	     -6.68105743	      0.96201950	     -1.62215317	     -0.02611788	     -0.29830335	     25.61793061	     11.54257524	      0.92307515	    -22.12244786	     -2.13441685	    -16.36306264	    -14.14139100	      1.46687269	    -13.18615499	    -10.73034498	    -49.41757996	    -35.44553013	      3.78119109	     36.14656532	      1.65403075	      8.26016319	     -3.49934215
